<svg version="1.1" id="Layer_1" xmlns="http://www.w3.org/2000/svg" xmlns:xlink="http://www.w3.org/1999/xlink" x="0px" y="0px"
	 width="100%" viewBox="0 0 1024 1024" enable-background="new 0 0 1024 1024" xml:space="preserve">
<path fill="#000000" opacity="1.000000" stroke="none" 
	d="
M250.845154,613.017334 
	C236.856171,581.371887 226.284363,549.038635 220.123779,515.340698 
	C216.688904,496.552277 214.244705,477.647278 213.611115,458.512360 
	C211.553848,396.381287 213.252548,334.235199 212.706711,272.098785 
	C212.609451,261.026733 217.799164,256.193695 228.751007,255.549332 
	C258.109039,253.822021 287.268097,250.262650 316.108063,244.473648 
	C363.273743,235.006119 408.826050,220.544525 452.233459,199.631653 
	C470.266968,190.943451 487.669342,181.107956 504.259796,169.919846 
	C510.647644,165.612091 516.325439,165.567215 522.663696,169.833969 
	C567.888123,200.277802 617.479675,220.931549 669.970154,234.913849 
	C698.708313,242.569061 727.847473,248.237061 757.404602,251.764877 
	C771.587524,253.457687 785.774414,254.921173 800.037476,255.718414 
	C807.573181,256.139648 812.349976,261.265930 813.218445,269.478058 
	C813.410339,271.292969 813.318726,273.140289 813.318909,274.972687 
	C813.325439,329.963959 813.496460,384.955841 813.289001,439.946320 
	C812.991882,518.681702 791.951843,591.603821 750.987183,658.780212 
	C715.925842,716.275879 670.515259,764.244019 616.764954,804.596680 
	C587.642639,826.460022 556.828430,845.509338 524.674377,862.543762 
	C516.494812,866.877014 509.698578,866.886902 501.325958,862.570068 
	C443.409729,832.709290 391.070831,795.285889 345.338776,748.818481 
	C306.205048,709.055359 274.454224,664.081604 250.845154,613.017334 
M350.536377,705.973022 
	C369.996277,728.243530 391.607880,748.260925 414.522552,766.896423 
	C443.825958,790.727478 475.820770,810.493713 508.601196,829.078918 
	C511.723297,830.849060 514.187561,830.885376 517.361816,829.101562 
	C542.208740,815.138550 566.616577,800.477417 589.668213,783.680054 
	C625.766479,757.375793 658.651123,727.599854 686.934998,692.906006 
	C713.095642,660.816650 734.374207,625.783569 750.531738,587.648804 
	C766.681213,549.532898 776.443420,509.816010 779.495117,468.571259 
	C780.746765,451.654144 780.893066,434.644012 780.704956,417.646088 
	C780.245789,376.165710 781.288391,334.678162 780.183838,293.196960 
	C780.074585,289.093140 779.123596,287.042969 774.564575,287.220764 
	C770.946533,287.361816 767.283264,286.728729 763.659607,286.281158 
	C738.301331,283.149017 712.995483,279.736145 687.979492,274.361725 
	C627.629028,261.396088 570.461670,240.323181 517.773621,207.831879 
	C514.365967,205.730484 511.927094,205.908890 508.754303,207.882004 
	C492.899445,217.742096 476.489258,226.611359 459.527954,234.411011 
	C393.373505,264.832153 323.541443,280.861176 251.287033,287.211914 
	C247.333130,287.559418 246.205017,288.927368 246.173630,292.652466 
	C245.974274,316.304749 245.115646,339.945648 245.305557,363.608002 
	C245.598206,400.067963 244.598038,436.551300 247.327560,472.961761 
	C249.095490,496.544952 253.508850,519.660706 260.035858,542.385071 
	C277.618774,603.601868 308.190735,657.640686 350.536377,705.973022 
z"/>
<path fill="#000000" opacity="1.000000" stroke="none" 
	d="
M681.347656,499.000061 
	C681.346191,552.322632 681.347900,605.145203 681.340759,657.967773 
	C681.338257,676.443481 668.887573,689.247742 650.389954,689.261108 
	C558.575439,689.327637 466.760742,689.310547 374.946198,689.227417 
	C357.412445,689.211548 344.666595,676.260376 344.664612,658.856750 
	C344.652191,550.378845 344.653259,441.900970 344.667389,333.423065 
	C344.669617,316.228912 356.342224,304.650177 373.576508,304.650574 
	C436.063751,304.651917 498.551086,304.697052 561.038208,304.602478 
	C567.979431,304.591949 573.526123,306.844818 578.425171,311.760345 
	C609.946777,343.388458 641.552063,374.933289 673.198303,406.436737 
	C678.826965,412.040070 681.517639,418.455841 681.435730,426.514954 
	C681.191956,450.507812 681.347717,474.504730 681.347656,499.000061 
M376.350403,609.499939 
	C376.350159,622.997192 376.344513,636.494385 376.351837,649.991638 
	C376.355896,657.416687 376.551056,657.639404 383.879944,657.639954 
	C470.030060,657.646851 556.180176,657.644958 642.330261,657.636597 
	C649.070374,657.635925 649.640381,657.076294 649.641663,650.138000 
	C649.654663,578.818359 649.652771,507.498718 649.641663,436.179077 
	C649.640686,429.771729 649.251404,429.402405 642.816345,429.395264 
	C621.320496,429.371429 599.809082,428.863953 578.333923,429.524475 
	C562.709534,430.005066 553.387512,416.686646 553.566589,404.725677 
	C553.873413,384.234222 553.657166,363.734833 553.646057,343.238770 
	C553.642456,336.521088 553.515991,336.366425 547.038574,336.365479 
	C492.882324,336.357635 438.726074,336.361420 384.569824,336.378571 
	C376.818573,336.381012 376.351257,336.879608 376.351135,344.550568 
	C376.349487,432.533661 376.350555,520.516785 376.350403,609.499939 
M610.313721,398.085724 
	C612.714844,397.920624 615.201721,398.452057 617.703613,397.491364 
	C607.085144,387.107758 596.729492,376.981262 585.457458,365.958618 
	C585.457458,375.978058 585.391113,385.533234 585.499268,395.086395 
	C585.530457,397.843140 587.846802,397.974365 589.888733,397.995270 
	C596.380554,398.061798 602.872986,398.060211 610.313721,398.085724 
z"/>
<path fill="#000000" opacity="1.000000" stroke="none" 
	d="
M443.006256,450.653076 
	C493.132050,450.654297 542.759033,450.646118 592.385986,450.666382 
	C601.121399,450.669922 606.537598,454.885468 608.661438,463.159637 
	C610.838989,471.643097 604.299683,480.735840 595.539795,481.331299 
	C593.550049,481.466583 591.544434,481.378143 589.546143,481.378265 
	C537.587708,481.381073 485.629242,481.393463 433.670807,481.374207 
	C422.209778,481.369965 415.402313,472.928558 417.804108,461.829681 
	C419.127747,455.713257 424.977203,450.895691 431.516907,450.684174 
	C435.176910,450.565765 438.843719,450.656708 443.006256,450.653076 
z"/>
<path fill="#000000" opacity="1.000000" stroke="none" 
	d="
M558.999878,544.378784 
	C516.528381,544.378235 474.556946,544.393372 432.585480,544.359985 
	C425.717255,544.354492 420.026917,540.241638 418.111847,534.166321 
	C415.975372,527.388733 418.239044,520.048645 423.680817,516.322327 
	C426.353210,514.492432 429.307434,513.619995 432.600677,513.621948 
	C486.230865,513.654480 539.861084,513.623474 593.491272,513.670654 
	C602.378357,513.678467 609.179626,520.497131 609.199707,529.074219 
	C609.220032,537.705505 602.472717,544.321594 593.476746,544.363342 
	C582.151367,544.415833 570.825562,544.377502 558.999878,544.378784 
z"/>
<path fill="#000000" opacity="1.000000" stroke="none" 
	d="
M458.000000,607.929993 
	C449.013977,607.747864 440.521454,608.231995 432.038635,607.483582 
	C422.294067,606.623840 417.369598,601.036560 417.656403,590.913330 
	C417.887939,582.740479 424.269745,576.758667 433.192932,576.699890 
	C449.179047,576.594666 465.166321,576.661072 481.153107,576.661682 
	C497.306427,576.662354 513.460449,576.581665 529.612671,576.716980 
	C536.352356,576.773376 541.577087,579.924377 544.187927,586.210876 
	C546.564209,591.932617 546.081726,597.646362 541.935242,602.617981 
	C539.353943,605.712952 536.021729,607.249817 531.920288,607.432861 
	C507.451660,608.524536 482.972321,607.658691 458.000000,607.929993 
z"/>
</svg>